# xmcd CD database file
#
# Track frame offsets:
#	150
#	35175
#	59306
#	83500
#	92852
#	114122
#	140148
#	146032
#	178846
#	210701
#
# Disc length: 2927 seconds
#
# Revision: 0
# Processed by: cddbd v1.5.1PL0 Copyright (c) Steve Scherf et al.
# Submitted via: CDex 1.51
#
DISCID=920b6d0a
DTITLE=Rodrigo Gonçalves - Tribology
DYEAR=2004
DGENRE=Jazz
TTITLE0=GBT
TTITLE1=Cuanto Antes
TTITLE2=Que Guay!
TTITLE3=Adeu (en Març)
TTITLE4=Adeu (en Març) coda
TTITLE5=Us Two
TTITLE6=ReEvolução intro
TTITLE7=ReEvolução
TTITLE8=Tribology
TTITLE9=Desde Já
EXTD=YEAR: 2004
EXTT0=
EXTT1=
EXTT2=
EXTT3=
EXTT4=
EXTT5=
EXTT6=
EXTT7=
EXTT8=
EXTT9=
PLAYORDER=
